<?xml version="1.0" encoding="UTF-8" standalone="no"?><!DOCTYPE svg PUBLIC "-//W3C//DTD SVG 1.1//EN" "http://www.w3.org/Graphics/SVG/1.1/DTD/svg11.dtd"><svg width="100%" height="100%" viewBox="0 0 224 407" version="1.1" xmlns="http://www.w3.org/2000/svg" xmlns:xlink="http://www.w3.org/1999/xlink" xml:space="preserve" xmlns:serif="http://www.serif.com/" style="fill-rule:evenodd;clip-rule:evenodd;stroke-linejoin:round;stroke-miterlimit:2;"><g id="papel"><path d="M2.295,247.342c11.697,11.682 30.831,11.947 42.847,0.593l16.275,-15.3c0.65,-0.61 1.509,-0.948 2.4,-0.945l41.895,-0c13.424,0.001 26.203,-5.849 34.973,-16.013l5.295,4.575c-10.095,11.707 -24.81,18.447 -40.268,18.443l-38.4,-0l0,128.01c0,9 6.428,18.277 17.175,18.277c9.413,-0.012 17.155,-7.754 17.168,-17.167l-0,-84.533l7.005,0l-0,103.253c-0,9.697 6.937,19.725 18.547,19.725c10.172,-0.008 18.539,-8.376 18.548,-18.548l-0,-104.392l6.997,-0l0,105.705c-0.043,4.513 1.674,8.872 4.785,12.142c3.255,3.324 7.739,5.167 12.39,5.093c9.413,-0.012 17.155,-7.754 17.168,-17.168l-0,-105.75l7.005,0l-0,70.92c0.008,8.012 6.597,14.602 14.61,14.61c9.495,0 14.617,-7.905 14.617,-15.345l0,-148.702c0,-18.983 -6.21,-36.495 -17.482,-49.313c-0.563,-0.637 -0.873,-1.459 -0.87,-2.31l-0,-68.175l-126.675,0l-0,68.175c-0.003,0.939 -0.381,1.839 -1.05,2.498c-0.09,0.09 -9.045,8.887 -13.5,13.837l-61.68,66.93c-2.845,3.077 -2.745,7.919 0.225,10.875Z" style="fill:#ffd9d9;fill-rule:nonzero;"/><rect x="78.382" y="57.862" width="126.735" height="74.903" style="fill:#ffc9c9;"/><rect x="77.752" y="0" width="127.995" height="114.682" style="fill:#fff;"/><rect x="70.582" y="0" width="142.335" height="93.682" style="fill:#21cfcb;"/></g></svg>