<?xml version="1.0" encoding="UTF-8" standalone="no"?><!DOCTYPE svg PUBLIC "-//W3C//DTD SVG 1.1//EN" "http://www.w3.org/Graphics/SVG/1.1/DTD/svg11.dtd"><svg width="100%" height="100%" viewBox="0 0 224 407" version="1.1" xmlns="http://www.w3.org/2000/svg" xmlns:xlink="http://www.w3.org/1999/xlink" xml:space="preserve" xmlns:serif="http://www.serif.com/" style="fill-rule:evenodd;clip-rule:evenodd;stroke-linejoin:round;stroke-miterlimit:2;"><g id="papel"><path d="M221.033,158.92c-11.698,-11.682 -30.831,-11.947 -42.848,-0.593l-16.275,15.3c-0.649,0.61 -1.509,0.948 -2.4,0.945l-41.895,0c-13.423,-0.001 -26.203,5.849 -34.972,16.013l-5.295,-4.575c10.094,-11.707 24.81,-18.447 40.267,-18.443l38.4,0l0,-128.01c0,-9 -6.428,-18.277 -17.175,-18.277c-9.413,0.012 -17.155,7.754 -17.167,17.167l-0,84.533l-7.005,-0l-0,-103.253c-0,-9.697 -6.938,-19.725 -18.548,-19.725c-10.171,0.008 -18.539,8.376 -18.547,18.548l-0,104.392l-6.998,0l-0,-105.705c0.043,-4.513 -1.674,-8.872 -4.785,-12.142c-3.255,-3.324 -7.738,-5.167 -12.39,-5.093c-9.413,0.012 -17.155,7.754 -17.168,17.168l0,105.75l-7.005,-0l0,-70.92c-0.008,-8.012 -6.597,-14.602 -14.61,-14.61c-9.494,-0 -14.617,7.905 -14.617,15.345l0,148.702c0,18.983 6.21,36.495 17.482,49.313c0.563,0.637 0.873,1.459 0.87,2.31l0,68.175l126.675,-0l0,-68.175c0.003,-0.939 0.381,-1.839 1.05,-2.498c0.09,-0.09 9.045,-8.887 13.5,-13.837l61.68,-66.93c2.845,-3.077 2.745,-7.919 -0.225,-10.875Z" style="fill:#ffd9d9;fill-rule:nonzero;"/><rect x="18.21" y="273.497" width="126.735" height="74.903" style="fill:#ffc9c9;"/><rect x="17.58" y="291.58" width="127.995" height="114.683" style="fill:#fff;"/><rect x="10.41" y="312.58" width="142.335" height="93.683" style="fill:#21cfcb;"/></g></svg>