<?xml version="1.0" encoding="UTF-8" standalone="no"?><!DOCTYPE svg PUBLIC "-//W3C//DTD SVG 1.1//EN" "http://www.w3.org/Graphics/SVG/1.1/DTD/svg11.dtd"><svg width="100%" height="100%" viewBox="0 0 195 337" version="1.1" xmlns="http://www.w3.org/2000/svg" xmlns:xlink="http://www.w3.org/1999/xlink" xml:space="preserve" xmlns:serif="http://www.serif.com/" style="fill-rule:evenodd;clip-rule:evenodd;stroke-linejoin:round;stroke-miterlimit:2;"><g><path d="M104.498,272.205l0,42.412c0.218,11.704 9.906,21.213 21.612,21.213c11.705,-0 21.393,-9.509 21.611,-21.213l-0,-43.492c-1.553,0.707 -3.237,1.076 -4.943,1.08l-38.28,0Z" style="fill:#ffd9d9;fill-rule:nonzero;"/><path d="M53.768,314.37c-0.003,0.135 -0.003,0.27 -0.003,0.405c-0,12.006 9.879,21.885 21.885,21.885c12.005,0 21.885,-9.879 21.885,-21.885c-0,-0.135 -0.002,-0.27 -0.004,-0.405l-0,-42.165l-43.763,0l0,42.165Z" style="fill:#ffd9d9;fill-rule:nonzero;"/><path d="M10.748,262.178l0,54.12c0,9.886 8.136,18.022 18.023,18.022c9.886,0 18.022,-8.136 18.022,-18.022l0,-44.093l-7.185,0c-10.475,0.017 -20.652,-3.519 -28.86,-10.027Z" style="fill:#ffd9d9;fill-rule:nonzero;"/><path d="M174.833,233.205c-11.016,0.012 -20.076,9.076 -20.085,20.093l0,30.87c0.21,10.873 9.213,19.704 20.089,19.704c10.876,-0 19.878,-8.831 20.089,-19.704l-0,-30.87c-0.013,-11.018 -9.075,-20.081 -20.093,-20.093Z" style="fill:#ffd9d9;fill-rule:nonzero;"/><path d="M0.038,227.558c0,0.247 0,0.495 0.045,0.75c0,0.382 0.053,0.75 0.09,1.132c0.038,0.383 0.068,0.615 0.105,0.923c0.038,0.307 0.075,0.622 0.12,0.937c0.045,0.315 0.098,0.66 0.158,0.99c0.06,0.33 0.097,0.563 0.15,0.84c0.052,0.278 0.135,0.675 0.21,1.013c0.075,0.337 0.12,0.54 0.187,0.81c0.068,0.27 0.158,0.667 0.248,0.997c0.09,0.33 0.157,0.555 0.24,0.825c0.082,0.27 0.18,0.623 0.277,0.93c0.098,0.308 0.21,0.63 0.323,0.945l0.27,0.75c0.157,0.428 0.33,0.855 0.502,1.283c0.06,0.127 0.105,0.262 0.165,0.397c6.204,14.596 20.591,24.125 36.45,24.143l103.23,-0c2.71,-0.004 4.938,-2.233 4.943,-4.943l-0,-5.25c-0.025,-18.59 -15.317,-33.88 -33.908,-33.9l-51.217,0l-0,-6.997l0.585,-0c19.603,-0.03 36.149,-15.178 37.905,-34.703c0.097,-1.102 0.157,-2.25 0.157,-3.36l0,-12.285l6.975,0l0,12.27c0,0.893 0,1.778 -0.082,2.655c-0.868,14.469 -8.664,27.665 -20.918,35.408l26.595,-0c16.5,0.015 31.447,10.001 37.778,25.237c4.885,-8.143 13.713,-13.141 23.209,-13.141c7.658,0 14.966,3.249 20.096,8.934l-0,-26.76c-0,-18.24 -9,-38.723 -24.225,-55.86c-0.69,-0.501 -1.388,-0.973 -2.093,-1.418l0,-0.877c-0.817,-0.863 -1.627,-1.733 -2.475,-2.58c-0.659,-0.655 -1.029,-1.547 -1.027,-2.475l-0,-50.04l-126.668,-0l0,50.04c0.003,1.062 -0.482,2.068 -1.312,2.73c-6.471,5.2 -12.266,11.189 -17.25,17.827c-3.293,4.379 -6.212,9.025 -8.73,13.89c-7.343,14.224 -11.16,30.005 -11.13,46.013c-0.03,0.645 -0.015,1.282 0.022,1.92Z" style="fill:#ffd9d9;fill-rule:nonzero;"/><rect x="38.183" y="57.442" width="127.17" height="74.903" style="fill:#ffc9c9;"/><rect x="37.778" y="93.27" width="127.995" height="21" style="fill:#fff;"/><rect x="30.608" y="0" width="142.335" height="93.263" style="fill:#ffd000;"/></g></svg>