<?xml version="1.0" encoding="UTF-8" standalone="no"?><!DOCTYPE svg PUBLIC "-//W3C//DTD SVG 1.1//EN" "http://www.w3.org/Graphics/SVG/1.1/DTD/svg11.dtd"><svg width="100%" height="100%" viewBox="0 0 195 337" version="1.1" xmlns="http://www.w3.org/2000/svg" xmlns:xlink="http://www.w3.org/1999/xlink" xml:space="preserve" xmlns:serif="http://www.serif.com/" style="fill-rule:evenodd;clip-rule:evenodd;stroke-linejoin:round;stroke-miterlimit:2;"><g><path d="M90.428,64.455l-0,-42.412c-0.218,-11.704 -9.906,-21.213 -21.612,-21.213c-11.705,0 -21.393,9.509 -21.611,21.213l-0,43.492c1.552,-0.707 3.237,-1.075 4.943,-1.08l38.28,-0Z" style="fill:#ffd9d9;fill-rule:nonzero;"/><path d="M141.158,22.29c0.003,-0.135 0.003,-0.27 0.003,-0.405c0,-12.006 -9.879,-21.885 -21.885,-21.885c-12.005,0 -21.885,9.879 -21.885,21.885c0,0.135 0.002,0.27 0.004,0.405l0,42.165l43.763,-0l-0,-42.165Z" style="fill:#ffd9d9;fill-rule:nonzero;"/><path d="M184.178,74.482l-0,-54.119c-0,-9.887 -8.136,-18.023 -18.023,-18.023c-9.886,0 -18.022,8.136 -18.022,18.023l-0,44.092l7.185,-0c10.475,-0.017 20.652,3.519 28.86,10.027Z" style="fill:#ffd9d9;fill-rule:nonzero;"/><path d="M20.093,103.455c11.016,-0.012 20.076,-9.076 20.085,-20.093l-0,-30.869c-0.21,-10.874 -9.213,-19.704 -20.089,-19.704c-10.876,-0 -19.878,8.83 -20.089,19.704l0,30.869c0.013,11.018 9.075,20.081 20.093,20.093Z" style="fill:#ffd9d9;fill-rule:nonzero;"/><path d="M194.888,109.102c-0,-0.247 -0,-0.495 -0.045,-0.75c-0,-0.382 -0.053,-0.75 -0.09,-1.132c-0.038,-0.383 -0.068,-0.615 -0.105,-0.923c-0.038,-0.307 -0.076,-0.622 -0.12,-0.937c-0.045,-0.315 -0.098,-0.66 -0.158,-0.99c-0.06,-0.33 -0.097,-0.563 -0.15,-0.84c-0.053,-0.278 -0.135,-0.675 -0.21,-1.013c-0.075,-0.337 -0.12,-0.54 -0.188,-0.81c-0.067,-0.27 -0.157,-0.667 -0.247,-0.997c-0.09,-0.33 -0.157,-0.555 -0.24,-0.825c-0.083,-0.27 -0.18,-0.623 -0.278,-0.93c-0.097,-0.308 -0.21,-0.63 -0.322,-0.945l-0.27,-0.75c-0.157,-0.428 -0.33,-0.855 -0.502,-1.283c-0.06,-0.127 -0.105,-0.262 -0.165,-0.397c-6.204,-14.596 -20.591,-24.125 -36.451,-24.143l-103.229,0c-2.71,0.004 -4.938,2.233 -4.943,4.943l-0,5.25c0.025,18.59 15.317,33.88 33.907,33.9l51.218,-0l-0,6.997l-0.585,0c-19.604,0.03 -36.149,15.178 -37.905,34.703c-0.097,1.102 -0.157,2.25 -0.157,3.36l-0,12.285l-6.975,-0l-0.001,-12.27c0.001,-0.893 0.001,-1.778 0.083,-2.655c0.868,-14.469 8.664,-27.665 20.918,-35.408l-26.596,0c-16.499,-0.015 -31.446,-10.001 -37.777,-25.237c-4.886,8.143 -13.713,13.141 -23.209,13.141c-7.658,-0 -14.966,-3.249 -20.096,-8.934l0,26.76c0,18.24 9,38.723 24.225,55.86c0.69,0.501 1.387,0.973 2.092,1.418l0,0.877c0.818,0.863 1.628,1.733 2.475,2.58c0.66,0.655 1.03,1.547 1.028,2.475l-0,50.04l126.667,0l0,-50.04c-0.002,-1.062 0.483,-2.068 1.313,-2.73c6.471,-5.2 12.266,-11.189 17.25,-17.827c3.292,-4.379 6.212,-9.025 8.73,-13.89c7.342,-14.224 11.16,-30.005 11.13,-46.013c0.03,-0.645 0.015,-1.282 -0.023,-1.92Z" style="fill:#ffd9d9;fill-rule:nonzero;"/><rect x="29.572" y="204.315" width="127.17" height="74.903" style="fill:#ffc9c9;"/><rect x="29.153" y="222.39" width="127.995" height="21" style="fill:#fff;"/><rect x="21.983" y="243.397" width="142.335" height="93.263" style="fill:#ffd000;"/></g></svg>