<?xml version="1.0" encoding="UTF-8" standalone="no"?><!DOCTYPE svg PUBLIC "-//W3C//DTD SVG 1.1//EN" "http://www.w3.org/Graphics/SVG/1.1/DTD/svg11.dtd"><svg width="100%" height="100%" viewBox="0 0 177 406" version="1.1" xmlns="http://www.w3.org/2000/svg" xmlns:xlink="http://www.w3.org/1999/xlink" xml:space="preserve" xmlns:serif="http://www.serif.com/" style="fill-rule:evenodd;clip-rule:evenodd;stroke-linejoin:round;stroke-miterlimit:2;"><g id="tijera"><path d="M18.465,187.533c9.303,-0.017 17.217,-7.053 18.323,-16.29l-0,-0.443c0.006,-0.67 0.059,-1.339 0.157,-2.002l0,-26.55c0,-10.129 -8.335,-18.465 -18.465,-18.465c-10.129,-0 -18.465,8.336 -18.465,18.465l0,26.82c0.012,10.119 8.331,18.445 18.45,18.465Z" style="fill:#ffd9d9;fill-rule:nonzero;"/><path d="M161.303,0.168c-0.793,-0.112 -1.593,-0.168 -2.394,-0.168c-8.514,0 -15.804,6.339 -16.986,14.77l-16.5,112.98c-0.241,1.719 -1.727,3.011 -3.462,3.011c-1.735,-0 -3.22,-1.292 -3.461,-3.011l-16.357,-112.627c-1.047,-8.568 -8.403,-15.08 -17.034,-15.08c-9.414,-0 -17.16,7.746 -17.16,17.16c0,0.898 0.071,1.795 0.211,2.682l11.827,84.15c5.025,4.791 7.87,11.44 7.868,18.383l0,33.533l30.525,-0c16.036,0.008 30.97,8.337 39.405,21.975c0.21,-30.488 1.357,-38.528 7.627,-82.613c2.513,-17.662 5.948,-41.858 10.5,-75.75c1.31,-9.327 -5.283,-18.08 -14.61,-19.395Z" style="fill:#ffd9d9;fill-rule:nonzero;"/><path d="M80.858,155.943l-0,-33.533c-0,-5.46 -2.429,-10.647 -6.623,-14.145c-0.15,-0.127 -0.315,-0.247 -0.465,-0.367c-0.292,-0.233 -0.585,-0.458 -0.892,-0.668l-0.578,-0.375c-0.275,-0.18 -0.56,-0.352 -0.855,-0.517c-0.225,-0.128 -0.458,-0.248 -0.69,-0.368c-0.232,-0.12 -0.54,-0.27 -0.81,-0.39c-0.27,-0.12 -0.517,-0.225 -0.75,-0.33c-0.232,-0.105 -0.532,-0.202 -0.803,-0.292l-0.832,-0.27c-0.277,-0.083 -0.563,-0.15 -0.848,-0.218c-0.284,-0.067 -0.547,-0.135 -0.825,-0.187c-0.277,-0.053 -0.667,-0.105 -1.005,-0.15c-0.337,-0.045 -0.465,-0.075 -0.705,-0.098c-0.577,-0.052 -1.162,-0.09 -1.755,-0.09c-10.125,0.012 -18.453,8.34 -18.465,18.465l0,35.7c2.32,-1.422 4.989,-2.175 7.71,-2.175l29.19,0.008Z" style="fill:#ffd9d9;fill-rule:nonzero;"/><path d="M118.38,162.94l-66.75,0c-3.718,0.005 -6.952,2.643 -7.702,6.286c-0.751,3.641 -0,0.059 -0,0.089c-0.095,0.495 -0.142,0.997 -0.143,1.5l0,0.848c0.466,15.025 12.943,27.136 27.975,27.158l33.69,-0l-0,6.997c-18.188,0.025 -33.145,14.985 -33.165,33.173l-0,10.837l-6.998,0l0,-10.837c0.011,-13.278 6.603,-25.72 17.58,-33.188l-11.092,0c-14.302,-0.017 -27.22,-8.786 -32.513,-22.072c-4.755,6.763 -12.524,10.798 -20.792,10.798c-6.985,0 -13.671,-2.88 -18.47,-7.956l0,15.233c0.034,17.229 5.421,34.03 15.413,48.067c0.419,0.586 0.645,1.289 0.645,2.01l-0,71.355l126.667,0l0,-72.277c-0.001,-0.704 0.211,-1.392 0.607,-1.973c9.461,-13.727 14.49,-30.031 14.408,-46.702c-0.033,-21.578 -17.783,-39.321 -39.36,-39.346Z" style="fill:#ffd9d9;fill-rule:nonzero;"/><rect x="16.058" y="271.165" width="126.675" height="74.902" style="fill:#ffc9c9;"/><rect x="15.495" y="289.241" width="127.995" height="21" style="fill:#fff;"/><rect x="8.333" y="310.241" width="142.327" height="94.837" style="fill:#ff6230;"/></g></svg>