<?xml version="1.0" encoding="UTF-8" standalone="no"?><!DOCTYPE svg PUBLIC "-//W3C//DTD SVG 1.1//EN" "http://www.w3.org/Graphics/SVG/1.1/DTD/svg11.dtd"><svg width="100%" height="100%" viewBox="0 0 177 406" version="1.1" xmlns="http://www.w3.org/2000/svg" xmlns:xlink="http://www.w3.org/1999/xlink" xml:space="preserve" xmlns:serif="http://www.serif.com/" style="fill-rule:evenodd;clip-rule:evenodd;stroke-linejoin:round;stroke-miterlimit:2;"><g id="tijera"><path d="M157.613,217.545c-9.303,0.017 -17.217,7.053 -18.322,16.29l-0,0.443c-0.007,0.67 -0.059,1.339 -0.158,2.002l0,26.55c0,10.129 8.336,18.465 18.465,18.465c10.13,0 18.465,-8.336 18.465,-18.465l0,-26.82c-0.012,-10.119 -8.331,-18.445 -18.45,-18.465Z" style="fill:#ffd9d9;fill-rule:nonzero;"/><path d="M14.776,404.911c0.793,0.112 1.593,0.168 2.394,0.168c8.513,0 15.803,-6.339 16.986,-14.77l16.5,-112.98c0.241,-1.718 1.726,-3.011 3.461,-3.011c1.735,0 3.221,1.293 3.461,3.011l16.358,112.627c1.046,8.568 8.402,15.081 17.033,15.081c9.414,-0 17.16,-7.746 17.16,-17.16c0,-0.899 -0.07,-1.796 -0.211,-2.683l-11.827,-84.15c-5.024,-4.791 -7.87,-11.44 -7.868,-18.383l0,-33.532l-30.525,-0c-16.035,-0.009 -30.969,-8.337 -39.405,-21.975c-0.21,30.487 -1.357,38.527 -7.627,82.612c-2.513,17.663 -5.948,41.858 -10.5,75.75c-1.31,9.327 5.284,18.081 14.61,19.395Z" style="fill:#ffd9d9;fill-rule:nonzero;"/><path d="M95.221,249.135l-0,33.533c-0,5.46 2.428,10.647 6.622,14.144c0.15,0.128 0.315,0.248 0.465,0.368c0.293,0.233 0.585,0.458 0.893,0.668l0.577,0.375c0.276,0.18 0.561,0.352 0.855,0.517c0.225,0.128 0.458,0.248 0.69,0.368c0.233,0.12 0.54,0.27 0.81,0.39c0.27,0.12 0.518,0.225 0.75,0.33c0.233,0.105 0.533,0.202 0.803,0.292l0.832,0.27c0.278,0.083 0.563,0.15 0.848,0.218c0.285,0.067 0.547,0.135 0.825,0.187c0.277,0.053 0.667,0.105 1.005,0.15c0.337,0.045 0.465,0.075 0.705,0.098c0.577,0.052 1.162,0.09 1.755,0.09c10.125,-0.012 18.453,-8.34 18.465,-18.465l-0,-35.7c-2.32,1.422 -4.989,2.175 -7.71,2.175l-29.19,-0.008Z" style="fill:#ffd9d9;fill-rule:nonzero;"/><path d="M57.698,242.138l66.75,-0c3.719,-0.005 6.952,-2.643 7.703,-6.286c0.751,-3.641 -0,-0.059 -0,-0.089c0.094,-0.495 0.142,-0.997 0.142,-1.5l0,-0.848c-0.466,-15.025 -12.942,-27.136 -27.975,-27.158l-33.69,0l0,-6.997c18.188,-0.025 33.145,-14.985 33.165,-33.173l0,-10.837l6.998,-0l-0,10.837c-0.011,13.278 -6.602,25.72 -17.58,33.188l11.092,-0c14.302,0.016 27.22,8.786 32.513,22.072c4.756,-6.763 12.524,-10.798 20.792,-10.798c6.986,-0 13.671,2.88 18.47,7.956l0,-15.233c-0.033,-17.229 -5.421,-34.03 -15.412,-48.067c-0.42,-0.586 -0.645,-1.289 -0.645,-2.01l-0,-71.355l-126.668,-0l0,72.277c0.001,0.704 -0.21,1.392 -0.607,1.973c-9.461,13.727 -14.49,30.031 -14.408,46.702c0.033,21.578 17.783,39.321 39.36,39.345Z" style="fill:#ffd9d9;fill-rule:nonzero;"/><rect x="33.346" y="59.01" width="126.675" height="74.903" style="fill:#ffc9c9;"/><rect x="32.588" y="94.837" width="127.995" height="21" style="fill:#fff;"/><rect x="25.418" y="0" width="142.327" height="94.837" style="fill:#ff6230;"/></g></svg>